<?xml version="1.0" standalone="no"?>
<!DOCTYPE svg PUBLIC "-//W3C//DTD SVG 20010904//EN"
 "http://www.w3.org/TR/2001/REC-SVG-20010904/DTD/svg10.dtd">
<svg version="1.0" xmlns="http://www.w3.org/2000/svg"
 width="781.000000pt" height="781.000000pt" viewBox="0 0 781.000000 781.000000"
 preserveAspectRatio="xMidYMid meet">
<metadata>
Created by potrace 1.11, written by Peter Selinger 2001-2013
</metadata>
<g transform="translate(0.000000,781.000000) scale(0.100000,-0.100000)"
fill="#000000" stroke="none">
<path d="M5570 7707 c0 -3 -50 -178 -111 -388 -61 -211 -116 -406 -124 -434
-7 -27 -59 -207 -115 -400 -55 -192 -129 -448 -162 -567 l-62 -217 -1275 -1
c-702 -1 -1339 -3 -1416 -5 -77 -2 -161 -3 -188 -4 -46 -1 -47 -2 -43 -28 3
-16 7 -48 10 -73 3 -25 12 -101 21 -170 9 -69 18 -143 21 -165 2 -22 9 -71 14
-110 5 -38 12 -94 15 -124 3 -30 8 -64 10 -75 2 -12 7 -48 10 -81 3 -33 12
-107 20 -165 16 -124 25 -190 31 -245 3 -22 11 -92 20 -155 8 -63 17 -131 19
-150 2 -19 9 -73 15 -119 6 -45 13 -97 14 -115 2 -17 7 -51 10 -76 4 -25 8
-61 11 -80 3 -29 22 -183 40 -320 3 -19 21 -163 40 -320 35 -277 40 -317 50
-390 2 -19 7 -55 10 -80 5 -51 13 -111 19 -155 3 -16 30 -230 61 -475 30 -245
57 -461 60 -480 3 -19 18 -143 35 -275 35 -274 39 -307 45 -355 3 -19 7 -54
10 -77 3 -24 7 -61 10 -83 3 -22 7 -57 9 -77 3 -21 8 -63 12 -93 4 -30 8 -64
9 -75 2 -11 6 -47 10 -80 4 -33 8 -67 10 -75 1 -8 8 -61 15 -117 l13 -101 46
-4 c62 -6 2341 -10 2341 -5 0 3 42 335 54 422 2 17 7 57 11 90 3 33 8 71 10
85 2 14 18 135 35 270 17 135 33 261 35 280 2 19 13 105 24 190 11 85 23 180
26 210 3 30 8 66 10 80 4 23 69 529 80 625 3 22 14 112 25 200 11 88 23 176
25 195 5 38 24 184 31 240 2 19 7 51 9 70 5 38 5 38 35 280 11 91 23 181 25
200 3 19 14 107 25 195 11 88 22 176 25 195 2 19 11 94 20 165 9 72 18 141 20
155 2 14 13 99 25 190 11 91 22 181 25 200 3 19 21 163 40 320 19 157 37 299
40 315 2 17 13 102 24 190 12 88 23 172 26 188 l5 27 -265 0 -265 0 4 27 c3
14 125 445 272 956 205 717 264 931 254 937 -11 7 -79 27 -282 86 -10 3 -18 3
-18 1z"/>
</g>
</svg>
